<mxfile host="app.diagrams.net" modified="2024-04-28T16:26:37.035Z" agent="Mozilla/5.0 (Windows NT 10.0; Win64; x64) AppleWebKit/537.36 (KHTML, like Gecko) Chrome/124.0.0.0 Safari/537.36" etag="RBXqo3D_o8Zlr8wN8N0q" version="24.3.1" type="github">
  <diagram name="Page-1" id="5f0bae14-7c28-e335-631c-24af17079c00">
    <mxGraphModel dx="1050" dy="1372" grid="1" gridSize="10" guides="1" tooltips="1" connect="1" arrows="1" fold="1" page="1" pageScale="1" pageWidth="1100" pageHeight="850" background="none" math="0" shadow="0">
      <root>
        <mxCell id="0" />
        <mxCell id="1" parent="0" />
        <mxCell id="rrkSZeAy-1LdffaccSYH-1" value="Advert.class" style="shape=module;align=left;spacingLeft=20;align=center;verticalAlign=top;whiteSpace=wrap;html=1;" parent="1" vertex="1">
          <mxGeometry x="190" y="-660" width="130" height="50" as="geometry" />
        </mxCell>
        <mxCell id="rrkSZeAy-1LdffaccSYH-2" value="classes111.zip" style="shape=module;align=left;spacingLeft=20;align=center;verticalAlign=top;whiteSpace=wrap;html=1;" parent="1" vertex="1">
          <mxGeometry x="50" y="-790" width="130" height="50" as="geometry" />
        </mxCell>
        <mxCell id="rrkSZeAy-1LdffaccSYH-3" value="&amp;lt;&amp;lt;imports&amp;gt;&amp;gt;" style="endArrow=open;endSize=12;dashed=1;html=1;rounded=0;" parent="1" source="rrkSZeAy-1LdffaccSYH-1" target="rrkSZeAy-1LdffaccSYH-2" edge="1">
          <mxGeometry width="160" relative="1" as="geometry">
            <mxPoint x="460" y="-710" as="sourcePoint" />
            <mxPoint x="620" y="-710" as="targetPoint" />
          </mxGeometry>
        </mxCell>
        <mxCell id="rrkSZeAy-1LdffaccSYH-4" value="java.exe" style="shape=module;align=left;spacingLeft=20;align=center;verticalAlign=top;whiteSpace=wrap;html=1;" parent="1" vertex="1">
          <mxGeometry x="330" y="-790" width="110" height="50" as="geometry" />
        </mxCell>
        <mxCell id="rrkSZeAy-1LdffaccSYH-5" value="" style="endArrow=open;endSize=12;dashed=1;html=1;rounded=0;" parent="1" source="rrkSZeAy-1LdffaccSYH-1" target="rrkSZeAy-1LdffaccSYH-4" edge="1">
          <mxGeometry width="160" relative="1" as="geometry">
            <mxPoint x="460" y="-710" as="sourcePoint" />
            <mxPoint x="620" y="-710" as="targetPoint" />
          </mxGeometry>
        </mxCell>
      </root>
    </mxGraphModel>
  </diagram>
</mxfile>
